<?xml version="1.0" encoding="UTF-8" standalone="no"?>
<!DOCTYPE svg PUBLIC "-//W3C//DTD SVG 1.1//EN" "http://www.w3.org/Graphics/SVG/1.1/DTD/svg11.dtd">
<svg width="100%" height="100%" viewBox="0 0 1800 660" version="1.1" xmlns="http://www.w3.org/2000/svg" xmlnsXlink="http://www.w3.org/1999/xlink" xmlSpace="preserve" xmlnsSerif="http://www.serif.com/" style="fill-rule:evenodd;clip-rule:evenodd;stroke-linejoin:round;stroke-miterlimit:2;">
    <g transform="matrix(4.40185,0,0,4.40185,-1136.37,-1212.47)">
        <path d="M372.802,386.074C372.584,386.837 372.211,387.446 371.684,387.9C371.157,388.355 370.548,388.709 369.857,388.964C369.166,389.218 368.43,389.391 367.648,389.482C366.867,389.573 366.13,389.618 365.44,389.618C364.385,389.618 363.349,389.555 362.331,389.427C361.313,389.3 360.295,389.146 359.277,388.964C358.732,388.891 358.05,388.837 357.232,388.8C356.414,388.764 355.606,388.673 354.806,388.528C354.006,388.382 353.324,388.119 352.761,387.737C352.197,387.355 351.915,386.764 351.915,385.965C351.915,385.056 352.097,384.392 352.461,383.974C352.824,383.556 353.279,383.265 353.824,383.102C354.369,382.938 354.969,382.838 355.624,382.802C356.278,382.765 356.878,382.647 357.423,382.447C357.969,382.247 358.423,381.92 358.787,381.466C359.15,381.011 359.332,380.275 359.332,379.257C359.332,378.603 359.268,377.948 359.141,377.294C359.014,376.639 358.878,375.994 358.732,375.358C358.587,374.722 358.45,374.085 358.323,373.449C358.196,372.813 358.132,372.168 358.132,371.513C358.132,371.077 358.269,370.613 358.541,370.123C358.814,369.632 358.95,369.077 358.95,368.459C358.95,367.332 358.859,366.278 358.678,365.297C358.496,364.315 358.205,363.297 357.805,362.243C357.551,361.552 357.423,360.916 357.423,360.334C357.423,359.789 357.541,359.262 357.778,358.753C358.014,358.244 358.132,357.698 358.132,357.117C358.132,356.353 358.005,355.617 357.751,354.908C357.496,354.199 357.369,353.463 357.369,352.699C357.369,351.681 357.478,350.682 357.696,349.7C357.914,348.718 358.023,347.719 358.023,346.701C358.023,346.01 357.95,345.247 357.805,344.41C357.66,343.574 357.469,342.729 357.232,341.875C356.996,341.02 356.751,340.184 356.496,339.366C356.242,338.548 356.005,337.812 355.787,337.157C355.06,337.485 354.469,337.912 354.015,338.439C353.561,338.966 353.197,339.557 352.924,340.211C352.652,340.866 352.434,341.556 352.27,342.284C352.106,343.011 351.97,343.72 351.861,344.41C351.606,345.828 351.216,347.21 350.688,348.555C350.161,349.9 349.789,351.282 349.571,352.699C349.28,354.444 349.107,356.171 349.052,357.88C348.998,359.589 348.907,361.288 348.78,362.979C348.653,364.669 348.444,366.351 348.153,368.023C347.862,369.696 347.335,371.368 346.571,373.04C346.28,373.658 346.099,374.24 346.026,374.785C345.953,375.331 345.917,375.894 345.917,376.476C345.917,376.985 345.935,377.494 345.971,378.003C346.008,378.512 346.026,379.039 346.026,379.584C346.026,380.711 345.908,381.556 345.671,382.12C345.435,382.683 345.172,383.147 344.881,383.511C344.59,383.874 344.299,384.229 344.008,384.574C343.717,384.919 343.499,385.437 343.354,386.128C343.245,386.71 342.945,387.155 342.454,387.464C341.963,387.773 341.391,388.028 340.736,388.228C340.082,388.428 339.427,388.591 338.773,388.718C338.119,388.846 337.573,389.018 337.137,389.237C336.737,388.4 336.255,387.619 335.692,386.892C335.128,386.165 334.61,385.401 334.138,384.601C333.629,383.765 333.311,382.874 333.183,381.929C333.056,380.984 332.829,380.039 332.502,379.093C332.356,378.657 332.184,378.275 331.984,377.948C331.784,377.621 331.602,377.285 331.438,376.939C331.275,376.594 331.129,376.239 331.002,375.876C330.875,375.512 330.811,375.076 330.811,374.567C330.811,374.167 330.829,373.795 330.866,373.449C330.902,373.104 330.92,372.731 330.92,372.331C330.92,371.459 330.775,370.532 330.484,369.55C329.902,367.696 329.393,365.878 328.957,364.097C328.521,362.315 328.212,360.443 328.03,358.48C327.848,356.698 327.703,354.899 327.594,353.081C327.485,351.263 327.103,349.5 326.449,347.791C326.121,346.955 325.74,346.155 325.303,345.392C324.867,344.628 324.504,343.829 324.213,342.993C324.14,342.811 324.076,342.52 324.022,342.12C323.967,341.72 323.895,341.302 323.804,340.866C323.713,340.429 323.604,340.039 323.476,339.693C323.349,339.348 323.213,339.157 323.067,339.121C322.886,339.266 322.758,339.484 322.686,339.775C322.431,340.429 322.231,340.884 322.086,341.138C321.94,341.393 321.804,341.602 321.677,341.766C321.55,341.929 321.395,342.102 321.213,342.284C321.032,342.465 320.777,342.793 320.45,343.265C320.159,343.665 320.014,344.101 320.014,344.574C320.014,345.41 320.195,346.219 320.559,347.001C320.923,347.782 321.104,348.591 321.104,349.427C321.104,349.827 321.032,350.236 320.886,350.654C320.741,351.072 320.668,351.481 320.668,351.881C320.668,352.936 320.823,353.981 321.132,355.017C321.441,356.053 321.595,357.098 321.595,358.153C321.595,358.989 321.468,359.798 321.213,360.579C320.959,361.361 320.832,362.17 320.832,363.006C320.832,363.879 320.932,364.742 321.132,365.596C321.332,366.451 321.431,367.314 321.431,368.187C321.431,368.914 321.359,369.614 321.213,370.286C321.068,370.959 320.913,371.641 320.75,372.331C320.586,373.022 320.432,373.713 320.286,374.404C320.141,375.094 320.068,375.803 320.068,376.53C320.068,378.021 320.359,379.075 320.941,379.693C321.522,380.311 322.222,380.784 323.04,381.111C323.858,381.438 324.703,381.756 325.576,382.065C326.449,382.374 327.194,382.947 327.812,383.783C327.485,384.329 327.239,384.919 327.076,385.556C326.912,386.192 326.667,386.783 326.339,387.328C326.049,387.8 325.749,388.128 325.44,388.309C325.131,388.491 324.822,388.609 324.513,388.664C324.204,388.718 323.867,388.773 323.504,388.828C323.14,388.882 322.758,389.018 322.359,389.237C321.959,389.455 321.677,389.664 321.513,389.864C321.35,390.064 321.195,390.245 321.05,390.409C320.904,390.573 320.695,390.7 320.423,390.791C320.15,390.882 319.723,390.927 319.141,390.927C318.523,390.927 317.905,390.854 317.287,390.709C316.669,390.564 316.051,390.491 315.433,390.491C314.778,390.491 314.142,390.591 313.524,390.791C312.906,390.991 312.27,391.091 311.616,391.091C310.852,391.091 310.089,390.954 309.325,390.682C308.562,390.409 307.88,390.027 307.28,389.536C306.68,389.046 306.19,388.464 305.808,387.791C305.426,387.119 305.235,386.364 305.235,385.528C305.235,384.292 305.49,383.347 305.999,382.693C306.508,382.038 307.153,381.52 307.935,381.138C308.716,380.757 309.561,380.429 310.47,380.157C311.379,379.884 312.234,379.53 313.033,379.093C313.215,378.475 313.324,377.848 313.361,377.212C313.397,376.576 313.415,375.93 313.415,375.276C313.415,374.222 313.37,373.167 313.279,372.113C313.188,371.059 313.142,370.005 313.142,368.95C313.142,368.259 313.215,367.578 313.361,366.905C313.506,366.233 313.579,365.533 313.579,364.806C313.579,364.442 313.524,364.097 313.415,363.77C312.906,362.424 312.588,361.134 312.461,359.898C312.334,358.662 312.27,357.317 312.27,355.862C312.27,355.244 312.352,354.644 312.515,354.063C312.679,353.481 312.861,352.899 313.061,352.318C313.261,351.736 313.442,351.154 313.606,350.573C313.77,349.991 313.851,349.391 313.851,348.773C313.851,347.646 313.779,346.537 313.633,345.446C313.488,344.356 313.415,343.247 313.415,342.12C313.415,341.393 313.488,340.684 313.633,339.993C313.779,339.302 313.851,338.594 313.851,337.866C313.851,337.139 313.706,336.439 313.415,335.767C313.124,335.094 312.979,334.394 312.979,333.667C312.979,333.158 313.115,332.704 313.388,332.304C313.661,331.904 313.797,331.45 313.797,330.941C313.797,330.65 313.651,330.359 313.361,330.068C313.07,329.777 312.924,329.305 312.924,328.65C312.924,328.105 312.952,327.56 313.006,327.014C313.061,326.469 313.088,325.924 313.088,325.378C313.088,324.288 312.906,323.424 312.543,322.788C312.179,322.152 311.734,321.661 311.207,321.316C310.679,320.97 310.107,320.725 309.489,320.579C308.871,320.434 308.298,320.279 307.771,320.116C307.244,319.952 306.798,319.761 306.435,319.543C306.071,319.325 305.89,318.962 305.89,318.453C305.89,317.98 306.153,317.498 306.68,317.007C307.207,316.517 307.871,316.035 308.671,315.562C309.471,315.09 310.343,314.626 311.288,314.172C312.234,313.717 313.106,313.308 313.906,312.945C314.706,312.581 315.387,312.272 315.951,312.018C316.514,311.763 316.833,311.581 316.905,311.472C317.051,311.727 317.251,311.9 317.505,311.99C317.76,312.081 318.041,312.136 318.35,312.154C318.659,312.172 318.968,312.181 319.277,312.181C319.586,312.181 319.85,312.218 320.068,312.29C320.432,312.399 320.704,312.545 320.886,312.727C321.068,312.908 321.241,313.09 321.404,313.272C321.568,313.454 321.795,313.636 322.086,313.817C322.377,313.999 322.813,314.163 323.395,314.308C324.776,314.672 325.821,315.19 326.53,315.862C327.239,316.535 327.594,317.635 327.594,319.162C327.594,319.561 327.557,319.952 327.485,320.334C327.412,320.716 327.376,321.107 327.376,321.506L328.739,325.378C328.848,325.778 328.966,326.187 329.093,326.605C329.221,327.023 329.321,327.432 329.393,327.832C329.793,328.16 330.102,328.65 330.32,329.305C330.539,329.959 330.693,330.659 330.784,331.404C330.875,332.15 330.938,332.886 330.975,333.613C331.011,334.34 331.066,334.958 331.138,335.467C331.247,336.303 331.438,337.112 331.711,337.894C331.984,338.675 332.12,339.484 332.12,340.32C332.12,340.829 332.038,341.338 331.875,341.847C331.711,342.356 331.629,342.883 331.629,343.429C331.629,344.374 331.756,345.301 332.011,346.21C332.265,347.119 332.556,348.019 332.883,348.909C333.211,349.8 333.511,350.7 333.783,351.609C334.056,352.518 334.21,353.445 334.247,354.39C334.247,354.826 334.292,355.499 334.383,356.408C334.474,357.317 334.601,358.325 334.765,359.434C334.928,360.543 335.128,361.688 335.365,362.87C335.601,364.051 335.892,365.133 336.237,366.115C336.583,367.096 336.983,367.896 337.437,368.514C337.891,369.132 338.391,369.441 338.937,369.441C339.591,369.441 340.009,369.25 340.191,368.868C340.373,368.487 340.482,368.041 340.518,367.532C340.554,367.023 340.609,366.514 340.682,366.005C340.754,365.496 341.009,365.133 341.445,364.915C341.809,364.697 342.127,364.269 342.399,363.633C342.672,362.997 342.899,362.288 343.081,361.506C343.263,360.725 343.399,359.961 343.49,359.216C343.581,358.471 343.645,357.898 343.681,357.498C343.79,355.608 343.845,353.663 343.845,351.663C343.845,349.664 343.881,347.655 343.954,345.637C344.026,343.62 344.19,341.638 344.444,339.693C344.699,337.748 345.117,335.867 345.699,334.049C345.808,333.758 345.953,333.486 346.135,333.231C346.317,332.977 346.499,332.713 346.68,332.44C346.862,332.168 347.017,331.895 347.144,331.622C347.271,331.35 347.335,331.05 347.335,330.723C347.335,330.504 347.28,330.314 347.171,330.15C347.062,329.986 346.944,329.85 346.817,329.741C346.689,329.632 346.571,329.523 346.462,329.414C346.353,329.305 346.299,329.177 346.299,329.032C346.299,328.85 346.353,328.714 346.462,328.623C346.571,328.532 346.68,328.432 346.789,328.323C347.298,327.741 347.616,326.933 347.744,325.896C347.871,324.86 347.953,323.751 347.989,322.57C348.025,321.388 348.071,320.225 348.125,319.08C348.18,317.935 348.407,316.962 348.807,316.162C349.243,316.344 349.661,316.435 350.061,316.435C350.57,316.435 351.061,316.335 351.534,316.135C352.006,315.935 352.47,315.726 352.924,315.508C353.379,315.29 353.851,315.081 354.342,314.881C354.833,314.681 355.351,314.581 355.896,314.581C356.078,314.581 356.278,314.59 356.496,314.608C356.714,314.626 356.914,314.635 357.096,314.635C357.823,314.635 358.478,314.472 359.059,314.145C359.641,313.817 360.241,313.654 360.859,313.654C361.113,313.654 361.295,313.708 361.404,313.817C361.513,313.926 361.595,314.035 361.65,314.145C361.704,314.254 361.768,314.363 361.84,314.472C361.913,314.581 362.022,314.635 362.168,314.635C362.786,314.635 363.413,314.563 364.049,314.417C364.685,314.272 365.312,314.199 365.93,314.199C366.33,314.199 366.658,314.244 366.912,314.335C367.167,314.426 367.421,314.653 367.676,315.017C367.966,315.453 368.366,315.735 368.875,315.862C369.384,315.99 369.893,316.117 370.402,316.244C370.911,316.371 371.357,316.553 371.738,316.789C372.12,317.026 372.311,317.453 372.311,318.071C372.311,319.343 372.002,320.216 371.384,320.688C370.766,321.161 370.048,321.479 369.23,321.643C368.412,321.806 367.612,321.952 366.83,322.079C366.049,322.206 365.494,322.561 365.167,323.142C364.803,323.761 364.585,324.433 364.513,325.16C364.44,325.887 364.258,326.596 363.967,327.287C363.858,327.578 363.767,327.85 363.695,328.105C363.622,328.359 363.586,328.632 363.586,328.923C363.586,329.505 363.658,330.068 363.804,330.613C363.949,331.159 364.122,331.695 364.322,332.222C364.522,332.749 364.713,333.286 364.894,333.831C365.076,334.376 365.203,334.922 365.276,335.467C365.494,337.43 365.603,339.393 365.603,341.357C365.603,342.52 365.54,343.683 365.412,344.847C365.285,346.01 365.149,347.173 365.003,348.337C364.858,349.5 364.722,350.654 364.594,351.8C364.467,352.945 364.404,354.081 364.404,355.208C364.404,356.08 364.131,356.789 363.586,357.335L363.531,358.589C363.531,359.643 363.604,360.698 363.749,361.752C363.895,362.806 364.058,363.851 364.24,364.888C364.422,365.924 364.585,366.969 364.731,368.023C364.876,369.077 364.949,370.132 364.949,371.186C364.949,372.604 364.749,374.004 364.349,375.385C363.949,376.767 363.749,378.166 363.749,379.584C363.749,380.638 363.967,381.475 364.404,382.093C364.84,382.711 365.64,383.02 366.803,383.02C367.312,383.02 367.83,382.993 368.357,382.938C368.884,382.883 369.402,382.856 369.911,382.856C370.42,382.856 370.948,382.911 371.493,383.02C372.038,383.129 372.511,383.383 372.911,383.783C372.911,383.929 372.938,384.147 372.993,384.438C373.047,384.728 373.083,385.01 373.102,385.283C373.12,385.556 373.111,385.783 373.074,385.965C373.038,386.146 372.947,386.183 372.802,386.074ZM322.413,332.304C322.413,331.613 322.313,330.913 322.113,330.204C321.913,329.496 321.486,328.959 320.832,328.596C320.832,328.923 320.823,329.259 320.804,329.605C320.786,329.95 320.777,330.286 320.777,330.613C320.777,331.195 320.859,331.768 321.022,332.331C321.186,332.895 321.631,333.195 322.359,333.231C322.395,333.086 322.413,332.94 322.413,332.795L322.413,332.304ZM364.949,382.856C364.949,382.638 364.803,382.456 364.513,382.311C364.222,382.165 363.985,382.093 363.804,382.093C363.695,382.093 363.54,382.111 363.34,382.147C363.14,382.184 362.94,382.238 362.74,382.311C362.54,382.384 362.368,382.474 362.222,382.584C362.077,382.693 362.004,382.82 362.004,382.965C362.004,383.183 362.177,383.32 362.522,383.374C362.868,383.429 363.131,383.456 363.313,383.456C363.495,383.456 363.813,383.42 364.267,383.347C364.722,383.274 364.949,383.111 364.949,382.856ZM341.009,375.222C340.863,375.222 340.727,375.212 340.6,375.194C340.473,375.176 340.336,375.167 340.191,375.167C339.573,375.167 339.037,375.285 338.582,375.521C338.128,375.758 337.9,376.239 337.9,376.967L337.9,377.566C338.046,377.566 338.182,377.576 338.309,377.594C338.437,377.612 338.573,377.621 338.718,377.621C339.337,377.621 339.882,377.503 340.354,377.267C340.827,377.03 341.063,376.549 341.063,375.821L341.009,375.222Z" style="fill-rule:nonzero;"/>
        <path d="M440.532,380.457C440.532,381.075 440.423,381.656 440.204,382.202C439.986,382.747 439.786,383.311 439.605,383.892C439.459,384.401 439.359,384.819 439.305,385.147C439.25,385.474 439.168,385.756 439.059,385.992C438.95,386.228 438.778,386.446 438.541,386.646C438.305,386.846 437.932,387.073 437.423,387.328C436.333,387.91 435.178,388.5 433.96,389.1C432.743,389.7 431.516,390 430.279,390C429.225,390 428.234,389.755 427.307,389.264C426.38,388.773 425.526,388.228 424.744,387.628C423.963,387.028 423.254,386.474 422.618,385.965C421.981,385.456 421.445,385.201 421.009,385.201C420.536,385.201 420.127,385.328 419.782,385.583C419.436,385.837 419.091,386.11 418.746,386.401C418.4,386.692 418.019,386.964 417.601,387.219C417.182,387.473 416.664,387.601 416.046,387.601C415.537,387.601 415.01,387.691 414.465,387.873C413.92,388.055 413.374,388.264 412.829,388.5C412.284,388.737 411.729,388.973 411.166,389.209C410.602,389.446 410.084,389.636 409.611,389.782C407.975,390.218 406.33,390.473 404.676,390.545C403.022,390.618 401.359,390.654 399.686,390.654C399.25,390.654 398.578,390.645 397.669,390.627C396.76,390.609 395.842,390.518 394.915,390.354C393.988,390.191 393.17,389.927 392.461,389.564C391.752,389.2 391.397,388.691 391.397,388.037C391.397,387.891 391.416,387.764 391.452,387.655C391.197,387.946 390.907,388.182 390.579,388.364C390.252,388.546 389.889,388.637 389.489,388.637C388.907,388.637 388.198,388.237 387.362,387.437C386.526,386.637 385.726,385.71 384.963,384.656C384.199,383.601 383.545,382.556 382.999,381.52C382.454,380.484 382.181,379.711 382.181,379.202C382.181,378.803 382.299,378.439 382.536,378.112C382.772,377.785 382.89,377.421 382.89,377.021C382.89,376.512 382.827,376.03 382.699,375.576C382.572,375.122 382.509,374.64 382.509,374.131C382.509,373.476 382.636,372.777 382.89,372.031C383.145,371.286 383.454,370.541 383.817,369.796C384.181,369.05 384.563,368.323 384.963,367.614C385.362,366.905 385.726,366.242 386.053,365.624C386.417,364.897 386.926,364.315 387.58,363.879C388.234,363.442 388.925,363.061 389.652,362.733C390.379,362.406 391.107,362.079 391.834,361.752C392.561,361.425 393.197,360.988 393.742,360.443C394.288,361.061 394.997,361.37 395.869,361.37C396.778,361.37 397.669,361.234 398.541,360.961C399.414,360.688 400.304,360.552 401.213,360.552C401.94,360.552 402.64,360.625 403.313,360.77C403.985,360.916 404.685,360.988 405.412,360.988C406.212,360.988 406.803,360.888 407.185,360.688C407.566,360.489 408.048,360.134 408.63,359.625C409.212,359.116 409.948,358.725 410.838,358.453C411.729,358.18 412.656,357.962 413.62,357.798C414.583,357.635 415.546,357.462 416.51,357.28C417.473,357.098 418.337,356.835 419.1,356.489C419.864,356.144 420.482,355.671 420.954,355.072C421.427,354.472 421.663,353.645 421.663,352.59C421.663,351.427 421.327,350.2 420.654,348.909C419.982,347.619 419.118,346.437 418.064,345.365C417.01,344.292 415.846,343.411 414.574,342.72C413.302,342.029 412.084,341.684 410.92,341.684C410.775,341.684 410.629,341.702 410.484,341.738C410.339,341.775 410.211,341.793 410.102,341.793C409.23,341.938 408.248,342.038 407.157,342.093C406.067,342.147 405.049,342.311 404.104,342.584C403.158,342.856 402.359,343.311 401.704,343.947C401.05,344.583 400.723,345.519 400.723,346.755C400.723,347.482 400.786,348.2 400.913,348.909C401.041,349.618 401.104,350.336 401.104,351.063C401.104,352.154 400.841,353.063 400.314,353.79C399.786,354.517 399.114,355.099 398.296,355.535C397.478,355.971 396.578,356.271 395.596,356.435C394.615,356.599 393.67,356.68 392.761,356.68C391.67,356.68 390.725,356.535 389.925,356.244C389.125,355.953 388.471,355.281 387.962,354.226C387.562,353.463 387.135,352.636 386.68,351.745C386.226,350.854 385.999,349.955 385.999,349.046C385.999,348.064 386.171,347.146 386.517,346.292C386.862,345.437 387.253,344.601 387.689,343.783C388.125,342.965 388.553,342.147 388.971,341.329C389.389,340.511 389.689,339.63 389.87,338.684C390.125,338.539 390.479,338.394 390.934,338.248C391.388,338.103 391.879,337.957 392.406,337.812C392.933,337.666 393.442,337.53 393.933,337.403C394.424,337.276 394.833,337.157 395.16,337.048C396.033,336.794 396.878,336.494 397.696,336.149C398.514,335.803 399.35,335.485 400.204,335.194C401.059,334.903 401.913,334.649 402.768,334.431C403.622,334.213 404.504,334.085 405.412,334.049L407.103,333.995C408.666,333.995 410.266,334.131 411.902,334.404C413.538,334.676 415.137,335.103 416.701,335.685C418.264,336.267 419.746,336.985 421.145,337.839C422.545,338.693 423.79,339.702 424.881,340.866C425.681,341.738 426.344,342.765 426.871,343.947C427.398,345.128 427.816,346.374 428.125,347.682C428.434,348.991 428.653,350.309 428.78,351.636C428.907,352.963 428.971,354.19 428.971,355.317C428.971,356.844 428.925,358.344 428.834,359.816C428.743,361.288 428.698,362.788 428.698,364.315C428.698,365.769 428.78,367.214 428.943,368.65C429.107,370.086 429.298,371.522 429.516,372.958C429.734,374.394 429.925,375.83 430.089,377.267C430.252,378.703 430.334,380.13 430.334,381.547C430.407,382.42 430.525,382.956 430.688,383.156C430.852,383.356 431.025,383.456 431.207,383.456C432.006,383.456 432.652,383.211 433.142,382.72C433.633,382.229 434.079,381.684 434.479,381.084C434.878,380.484 435.315,379.93 435.787,379.421C436.26,378.912 436.86,378.657 437.587,378.657C437.914,378.657 438.25,378.675 438.596,378.712C438.941,378.748 439.259,378.83 439.55,378.957C439.841,379.084 440.077,379.266 440.259,379.502C440.441,379.739 440.532,380.057 440.532,380.457ZM422.59,366.878C422.59,366.66 422.581,366.278 422.563,365.733C422.545,365.187 422.499,364.633 422.427,364.07C422.354,363.506 422.236,363.006 422.072,362.57C421.909,362.134 421.663,361.915 421.336,361.915C421.263,361.915 421.172,361.943 421.063,361.997C420.954,362.052 420.863,362.079 420.791,362.079C419.409,362.843 418.228,363.47 417.246,363.96C416.264,364.451 415.292,364.851 414.329,365.16C413.365,365.469 412.338,365.678 411.247,365.787C410.157,365.896 408.793,365.951 407.157,365.951C406.939,365.951 406.339,366.042 405.358,366.224C404.376,366.405 403.304,366.614 402.14,366.851C400.977,367.087 399.886,367.323 398.868,367.56C397.85,367.796 397.214,367.95 396.96,368.023C396.487,368.205 396.151,368.387 395.951,368.569C395.751,368.75 395.596,368.95 395.487,369.168C395.378,369.387 395.269,369.614 395.16,369.85C395.051,370.086 394.851,370.332 394.56,370.586C394.197,370.877 393.806,371.113 393.388,371.295C392.97,371.477 392.579,371.75 392.215,372.113C391.67,372.658 391.161,373.377 390.688,374.267C390.216,375.158 389.98,376.003 389.98,376.803C389.98,377.785 390.234,378.657 390.743,379.421C391.252,380.184 391.925,380.838 392.761,381.384C393.597,381.929 394.542,382.402 395.596,382.802C396.651,383.202 397.714,383.511 398.787,383.729C399.859,383.947 400.895,384.11 401.895,384.219C402.895,384.329 403.758,384.383 404.485,384.383C405.358,384.383 406.394,384.319 407.594,384.192C408.793,384.065 409.993,383.865 411.193,383.592C412.393,383.32 413.52,382.947 414.574,382.474C415.628,382.002 416.464,381.402 417.082,380.675C417.337,380.384 417.519,380.12 417.628,379.884C417.737,379.648 417.855,379.411 417.982,379.175C418.11,378.939 418.255,378.693 418.419,378.439C418.582,378.185 418.846,377.912 419.209,377.621C420.045,376.93 420.691,376.167 421.145,375.331C421.6,374.494 421.936,373.622 422.154,372.713C422.372,371.804 422.499,370.859 422.536,369.877C422.572,368.896 422.59,367.896 422.59,366.878Z" style="fill-rule:nonzero;"/>
        <path d="M503.19,329.359L502.918,329.414C502.518,329.414 502.172,329.296 501.881,329.059C501.591,328.823 501.263,328.668 500.9,328.596L500.845,328.814C500.845,329.105 500.936,329.377 501.118,329.632C501.3,329.886 501.5,330.123 501.718,330.341C501.936,330.559 502.136,330.786 502.318,331.022C502.499,331.259 502.59,331.486 502.59,331.704C502.59,332.031 502.381,332.213 501.963,332.249C501.545,332.286 501.227,332.34 501.009,332.413C500.573,332.522 500.227,332.786 499.973,333.204C499.718,333.622 499.418,334.076 499.073,334.567C498.728,335.058 498.273,335.494 497.71,335.876C497.146,336.258 496.355,336.449 495.337,336.449C494.065,336.449 492.793,336.158 491.52,335.576C490.066,334.885 489.012,334.04 488.357,333.04C487.703,332.04 487.267,330.995 487.048,329.905C486.83,328.814 486.703,327.732 486.667,326.66C486.63,325.587 486.503,324.615 486.285,323.742C486.067,322.87 485.649,322.17 485.031,321.643C484.413,321.116 483.395,320.852 481.977,320.852C480.668,320.852 479.287,321.007 477.832,321.316C476.378,321.625 475.042,322.134 473.824,322.843C472.606,323.551 471.597,324.46 470.798,325.569C469.998,326.678 469.598,328.014 469.598,329.577C469.598,331.286 469.671,332.604 469.816,333.531C469.961,334.458 470.27,335.131 470.743,335.549C471.216,335.967 471.906,336.203 472.815,336.258C473.724,336.312 474.942,336.339 476.469,336.339C476.76,336.339 477.169,336.549 477.696,336.967C478.223,337.385 478.75,337.875 479.277,338.439C479.805,339.002 480.259,339.575 480.641,340.157C481.022,340.738 481.213,341.211 481.213,341.575C481.213,342.411 480.859,343.056 480.15,343.511C479.441,343.965 478.596,344.301 477.614,344.519C476.633,344.738 475.633,344.865 474.615,344.901C473.597,344.938 472.797,344.956 472.215,344.956C471.597,344.956 471.097,345.083 470.716,345.337C470.334,345.592 470.052,345.919 469.87,346.319C469.689,346.719 469.571,347.173 469.516,347.682C469.461,348.191 469.434,348.7 469.434,349.209C469.434,351.645 469.571,354.072 469.843,356.489C470.116,358.907 470.252,361.352 470.252,363.824C470.252,365.242 470.061,366.405 469.68,367.314C469.298,368.223 469.107,368.968 469.107,369.55C469.107,369.95 469.189,370.35 469.352,370.75C469.516,371.15 469.598,371.55 469.598,371.95C469.598,372.749 469.48,373.522 469.243,374.267C469.007,375.012 468.889,375.785 468.889,376.585C468.889,377.239 468.998,377.794 469.216,378.248C469.434,378.703 469.689,379.139 469.98,379.557C470.27,379.975 470.543,380.384 470.798,380.784C471.052,381.184 471.234,381.656 471.343,382.202C472.324,382.056 473.297,381.856 474.26,381.602C475.224,381.347 476.214,381.22 477.232,381.22C477.887,381.22 478.787,381.257 479.932,381.329C481.077,381.402 482.204,381.575 483.313,381.847C484.422,382.12 485.385,382.52 486.203,383.047C487.021,383.574 487.43,384.292 487.43,385.201C487.43,385.965 487.33,386.692 487.13,387.382C486.93,388.073 486.63,388.709 486.23,389.291C485.83,389.873 485.34,390.354 484.758,390.736C484.176,391.118 483.504,391.363 482.74,391.472C481.759,391.618 480.795,391.89 479.85,392.29C478.905,392.69 477.941,392.89 476.96,392.89C476.342,392.89 475.751,392.781 475.187,392.563C474.624,392.345 474.042,392.118 473.442,391.881C472.843,391.645 472.234,391.418 471.616,391.2C470.998,390.982 470.343,390.873 469.652,390.873C468.016,390.873 466.408,390.882 464.826,390.9C463.245,390.918 461.636,391 460,391.145C459.091,391.218 458.2,391.372 457.328,391.609C456.455,391.845 455.574,392.081 454.683,392.318C453.792,392.554 452.893,392.763 451.984,392.945C451.075,393.127 450.166,393.217 449.257,393.217C448.857,393.217 448.384,393.145 447.839,392.999C447.294,392.854 446.739,392.654 446.176,392.399C445.612,392.145 445.085,391.881 444.594,391.609C444.104,391.336 443.695,391.054 443.367,390.763L443.313,388.255C443.313,387.055 443.567,386.137 444.076,385.501C444.585,384.865 445.249,384.392 446.067,384.083C446.885,383.774 447.821,383.583 448.875,383.511C449.93,383.438 451.011,383.383 452.12,383.347C453.229,383.311 454.31,383.247 455.365,383.156C456.419,383.065 457.355,382.838 458.173,382.474C458.991,382.111 459.655,381.556 460.164,380.811C460.673,380.066 460.927,379.039 460.927,377.73C460.927,377.185 460.882,376.639 460.791,376.094C460.7,375.549 460.582,375.003 460.436,374.458L460.545,374.458C460.763,374.131 460.936,373.649 461.063,373.013C461.191,372.377 461.272,371.695 461.309,370.968C461.345,370.241 461.363,369.541 461.363,368.868L461.363,367.26C461.363,366.242 461.345,365.142 461.309,363.96C461.272,362.779 461.109,361.716 460.818,360.77C460.745,360.516 460.663,360.27 460.573,360.034C460.482,359.798 460.436,359.534 460.436,359.243C460.436,358.407 460.582,357.58 460.873,356.762C461.163,355.944 461.309,355.117 461.309,354.281C461.309,353.954 461.282,353.708 461.227,353.545C461.172,353.381 461.1,353.236 461.009,353.108C460.918,352.981 460.836,352.854 460.763,352.727C460.691,352.599 460.636,352.427 460.6,352.209C460.854,351.809 461.063,351.382 461.227,350.927C461.391,350.473 461.472,350.009 461.472,349.536C461.472,349.1 461.382,348.728 461.2,348.419C461.018,348.11 460.818,347.819 460.6,347.546C460.382,347.273 460.173,346.992 459.973,346.701C459.773,346.41 459.673,346.083 459.673,345.719C459.164,345.719 458.509,345.71 457.71,345.692C456.91,345.674 456.037,345.628 455.092,345.556C454.147,345.483 453.202,345.356 452.256,345.174C451.311,344.992 450.457,344.747 449.693,344.438C448.93,344.129 448.303,343.729 447.812,343.238C447.321,342.747 447.076,342.138 447.076,341.411C447.076,340.902 447.285,340.42 447.703,339.966C448.121,339.511 448.63,339.121 449.23,338.793C449.83,338.466 450.466,338.212 451.138,338.03C451.811,337.848 452.384,337.757 452.856,337.757C453.365,337.757 453.883,337.776 454.41,337.812C454.938,337.848 455.456,337.866 455.965,337.866C456.51,337.866 457.173,337.83 457.955,337.757C458.737,337.685 459.346,337.485 459.782,337.157C459.891,337.048 460.018,336.767 460.164,336.312C460.309,335.858 460.436,335.349 460.545,334.785C460.654,334.222 460.745,333.676 460.818,333.149C460.891,332.622 460.927,332.268 460.927,332.086C460.927,331.25 460.863,330.45 460.736,329.686C460.609,328.923 460.545,328.123 460.545,327.287C460.545,326.087 460.691,324.978 460.982,323.96C461.272,322.943 461.854,321.997 462.727,321.125C463.745,320.107 464.717,319.116 465.644,318.153C466.571,317.189 467.535,316.326 468.534,315.562C469.534,314.799 470.625,314.145 471.806,313.599C472.988,313.054 474.36,312.672 475.924,312.454C477.014,312.309 478.114,312.145 479.223,311.963C480.332,311.781 481.45,311.691 482.577,311.691C483.195,311.691 484.022,311.772 485.058,311.936C486.094,312.1 487.203,312.336 488.384,312.645C489.566,312.954 490.757,313.327 491.956,313.763C493.156,314.199 494.247,314.699 495.228,315.262C496.21,315.826 497.01,316.444 497.628,317.117C498.246,317.789 498.555,318.507 498.555,319.271C499.682,319.307 500.509,319.689 501.036,320.416C501.563,321.143 501.936,322.015 502.154,323.033C502.372,324.051 502.518,325.115 502.59,326.224C502.663,327.332 502.827,328.287 503.081,329.087L503.19,329.359ZM557.287,387.928C557.287,388.546 557.169,389.127 556.933,389.673C556.696,390.218 556.369,390.7 555.951,391.118C555.533,391.536 555.051,391.872 554.506,392.127C553.96,392.381 553.361,392.509 552.706,392.509C552.452,392.509 552.288,392.472 552.215,392.399C552.143,392.327 552.015,392.2 551.834,392.018C551.325,391.472 550.707,391.154 549.98,391.063C549.252,390.973 548.498,390.882 547.716,390.791C546.935,390.7 546.19,390.5 545.481,390.191C544.772,389.882 544.199,389.255 543.763,388.309C543.472,387.691 543.163,387.292 542.836,387.11C542.509,386.928 542,386.837 541.309,386.837C539.709,386.837 538.182,387.092 536.728,387.601C535.274,388.11 533.838,388.682 532.42,389.318C531.002,389.955 529.557,390.527 528.085,391.036C526.612,391.545 525.094,391.8 523.531,391.8C522.658,391.8 521.795,391.718 520.941,391.554C520.086,391.391 519.259,391.127 518.459,390.763C518.278,390.945 518.069,391.072 517.832,391.145C517.596,391.218 517.332,391.254 517.042,391.254C516.787,391.254 516.542,391.236 516.305,391.2C516.069,391.163 515.86,391.145 515.678,391.145C515.642,391.145 515.442,391.209 515.078,391.336C514.715,391.463 514.497,391.545 514.424,391.581L514.751,392.127C514.533,392.454 514.042,392.772 513.279,393.081C512.515,393.39 511.688,393.654 510.798,393.872C509.907,394.09 509.043,394.272 508.207,394.417C507.371,394.563 506.735,394.635 506.299,394.635C505.135,394.635 504.181,394.444 503.436,394.063C502.69,393.681 501.954,393.017 501.227,392.072C500.973,391.709 500.654,391.345 500.273,390.982C499.891,390.618 499.527,390.245 499.182,389.864C498.837,389.482 498.546,389.073 498.309,388.637C498.073,388.2 497.955,387.746 497.955,387.273C497.955,386.728 498.246,386.274 498.828,385.91C499.409,385.546 500.1,385.247 500.9,385.01C501.7,384.774 502.499,384.61 503.299,384.519C504.099,384.429 504.717,384.383 505.153,384.383C506.026,384.383 506.898,384.501 507.771,384.738C508.643,384.974 509.516,385.092 510.389,385.092C511.188,385.092 511.952,384.983 512.679,384.765C513.406,384.547 514.17,384.438 514.969,384.438C515.66,384.438 516.342,384.483 517.014,384.574C517.687,384.665 518.369,384.71 519.059,384.71C519.932,384.71 520.777,384.556 521.595,384.247C522.413,383.938 523.186,383.529 523.913,383.02C524.204,381.238 524.413,379.457 524.54,377.676C524.667,375.894 524.731,374.095 524.731,372.277C524.731,370.495 524.585,368.714 524.294,366.933C524.004,365.151 523.858,363.388 523.858,361.643C523.858,361.497 523.895,361.416 523.967,361.397C524.04,361.379 524.122,361.361 524.213,361.343C524.304,361.325 524.385,361.288 524.458,361.234C524.531,361.179 524.567,361.043 524.567,360.825C524.567,360.061 524.458,359.316 524.24,358.589C524.022,357.862 523.913,357.117 523.913,356.353C523.913,355.408 524.04,354.481 524.294,353.572C524.549,352.663 524.676,351.736 524.676,350.791C524.676,350.136 524.531,349.482 524.24,348.828C523.949,348.173 523.567,347.591 523.095,347.082C522.622,346.574 522.077,346.165 521.459,345.855C520.841,345.546 520.186,345.392 519.496,345.392C518.732,345.392 517.978,345.483 517.232,345.665C516.487,345.846 515.715,346.055 514.915,346.292C514.115,346.528 513.306,346.737 512.488,346.919C511.67,347.101 510.807,347.192 509.898,347.192C508.843,347.192 507.807,347.119 506.789,346.973C505.771,346.828 504.735,346.664 503.681,346.483C503.172,346.41 502.599,346.337 501.963,346.264C501.327,346.192 500.718,346.065 500.136,345.883C499.555,345.701 499.064,345.428 498.664,345.065C498.264,344.701 498.064,344.174 498.064,343.483C498.064,342.211 498.291,341.238 498.746,340.566C499.2,339.893 499.764,339.393 500.436,339.066C501.109,338.739 501.863,338.539 502.699,338.466C503.536,338.394 504.335,338.321 505.099,338.248C506.48,338.139 507.853,338.039 509.216,337.948C510.579,337.857 511.952,337.812 513.333,337.812C515.042,337.812 516.723,337.912 518.378,338.112C520.032,338.312 521.713,338.412 523.422,338.412C524.622,338.412 525.767,338.594 526.858,338.957C527.948,339.321 528.903,339.875 529.721,340.62C530.539,341.366 531.184,342.302 531.656,343.429C532.129,344.556 532.365,345.865 532.365,347.355C532.365,348.337 532.156,349.291 531.738,350.218C531.32,351.145 530.784,351.972 530.13,352.699C530.384,353.172 530.638,353.49 530.893,353.654C531.147,353.817 531.384,353.963 531.602,354.09C531.82,354.217 532.002,354.381 532.147,354.581C532.293,354.781 532.365,355.153 532.365,355.699C532.365,355.99 532.411,356.326 532.502,356.708C532.593,357.089 532.838,357.298 533.238,357.335C533.238,359.298 533.22,361.234 533.183,363.142C533.147,365.051 533.129,366.969 533.129,368.896C533.129,370.532 533.138,372.168 533.156,373.804C533.174,375.44 533.311,377.076 533.565,378.712C533.711,379.73 534.001,380.511 534.438,381.057C534.874,381.602 535.656,381.875 536.783,381.875C538.419,381.875 540.036,381.702 541.636,381.357C543.236,381.011 544.853,380.838 546.489,380.838C547.435,380.838 548.334,381.075 549.189,381.547C550.043,382.02 550.861,382.529 551.643,383.074C552.424,383.62 553.179,384.129 553.906,384.601C554.633,385.074 555.324,385.31 555.978,385.31C556.269,385.31 556.505,385.41 556.687,385.61C556.869,385.81 557.005,386.046 557.096,386.319C557.187,386.592 557.242,386.873 557.26,387.164C557.278,387.455 557.287,387.71 557.287,387.928ZM530.893,321.561C530.893,322.615 530.72,323.697 530.375,324.806C530.03,325.915 529.53,326.933 528.875,327.86C528.221,328.787 527.43,329.55 526.503,330.15C525.576,330.75 524.549,331.05 523.422,331.05C522.658,331.05 521.713,330.932 520.586,330.695C519.459,330.459 518.378,330.114 517.342,329.659C516.305,329.205 515.415,328.614 514.669,327.887C513.924,327.16 513.551,326.305 513.551,325.324C513.551,324.451 513.651,323.551 513.851,322.624C514.051,321.697 514.17,320.761 514.206,319.816C514.569,319.634 514.924,319.316 515.269,318.862C515.615,318.407 515.96,317.935 516.305,317.444C516.651,316.953 516.987,316.517 517.314,316.135C517.641,315.753 517.987,315.526 518.35,315.453L518.187,315.508C518.223,315.508 518.25,315.499 518.269,315.481C518.287,315.462 518.332,315.453 518.405,315.453C518.405,315.453 518.423,315.435 518.459,315.399L518.405,315.453C518.914,315.272 519.423,315.108 519.932,314.963C520.441,314.817 520.968,314.744 521.513,314.744C522.277,314.744 523.195,314.935 524.267,315.317C525.34,315.699 526.367,316.199 527.348,316.817C528.33,317.435 529.166,318.162 529.857,318.998C530.548,319.834 530.893,320.688 530.893,321.561Z" style="fill-rule:nonzero;"/>
        <path d="M620,380.457C620,381.075 619.891,381.656 619.673,382.202C619.455,382.747 619.255,383.311 619.073,383.892C618.928,384.401 618.828,384.819 618.773,385.147C618.718,385.474 618.637,385.756 618.528,385.992C618.419,386.228 618.246,386.446 618.01,386.646C617.773,386.846 617.401,387.073 616.892,387.328C615.801,387.91 614.647,388.5 613.429,389.1C612.211,389.7 610.984,390 609.748,390C608.693,390 607.703,389.755 606.776,389.264C605.849,388.773 604.994,388.228 604.213,387.628C603.431,387.028 602.722,386.474 602.086,385.965C601.45,385.456 600.913,385.201 600.477,385.201C600.005,385.201 599.596,385.328 599.25,385.583C598.905,385.837 598.559,386.11 598.214,386.401C597.869,386.692 597.487,386.964 597.069,387.219C596.651,387.473 596.133,387.601 595.515,387.601C595.006,387.601 594.479,387.691 593.933,387.873C593.388,388.055 592.843,388.264 592.297,388.5C591.752,388.737 591.197,388.973 590.634,389.209C590.07,389.446 589.552,389.636 589.08,389.782C587.444,390.218 585.799,390.473 584.145,390.545C582.49,390.618 580.827,390.654 579.155,390.654C578.718,390.654 578.046,390.645 577.137,390.627C576.228,390.609 575.31,390.518 574.383,390.354C573.456,390.191 572.638,389.927 571.929,389.564C571.22,389.2 570.866,388.691 570.866,388.037C570.866,387.891 570.884,387.764 570.92,387.655C570.666,387.946 570.375,388.182 570.048,388.364C569.721,388.546 569.357,388.637 568.957,388.637C568.375,388.637 567.666,388.237 566.83,387.437C565.994,386.637 565.194,385.71 564.431,384.656C563.667,383.601 563.013,382.556 562.468,381.52C561.922,380.484 561.65,379.711 561.65,379.202C561.65,378.803 561.768,378.439 562.004,378.112C562.24,377.785 562.359,377.421 562.359,377.021C562.359,376.512 562.295,376.03 562.168,375.576C562.04,375.122 561.977,374.64 561.977,374.131C561.977,373.476 562.104,372.777 562.359,372.031C562.613,371.286 562.922,370.541 563.286,369.796C563.649,369.05 564.031,368.323 564.431,367.614C564.831,366.905 565.194,366.242 565.521,365.624C565.885,364.897 566.394,364.315 567.048,363.879C567.703,363.442 568.394,363.061 569.121,362.733C569.848,362.406 570.575,362.079 571.302,361.752C572.029,361.425 572.665,360.988 573.211,360.443C573.756,361.061 574.465,361.37 575.337,361.37C576.246,361.37 577.137,361.234 578.01,360.961C578.882,360.688 579.773,360.552 580.682,360.552C581.409,360.552 582.109,360.625 582.781,360.77C583.454,360.916 584.154,360.988 584.881,360.988C585.681,360.988 586.271,360.888 586.653,360.688C587.035,360.489 587.516,360.134 588.098,359.625C588.68,359.116 589.416,358.725 590.307,358.453C591.197,358.18 592.125,357.962 593.088,357.798C594.051,357.635 595.015,357.462 595.978,357.28C596.942,357.098 597.805,356.835 598.569,356.489C599.332,356.144 599.95,355.671 600.423,355.072C600.895,354.472 601.132,353.645 601.132,352.59C601.132,351.427 600.795,350.2 600.123,348.909C599.45,347.619 598.587,346.437 597.532,345.365C596.478,344.292 595.315,343.411 594.042,342.72C592.77,342.029 591.552,341.684 590.389,341.684C590.243,341.684 590.098,341.702 589.952,341.738C589.807,341.775 589.68,341.793 589.571,341.793C588.698,341.938 587.716,342.038 586.626,342.093C585.535,342.147 584.517,342.311 583.572,342.584C582.627,342.856 581.827,343.311 581.172,343.947C580.518,344.583 580.191,345.519 580.191,346.755C580.191,347.482 580.254,348.2 580.382,348.909C580.509,349.618 580.573,350.336 580.573,351.063C580.573,352.154 580.309,353.063 579.782,353.79C579.255,354.517 578.582,355.099 577.764,355.535C576.946,355.971 576.046,356.271 575.065,356.435C574.083,356.599 573.138,356.68 572.229,356.68C571.138,356.68 570.193,356.535 569.393,356.244C568.594,355.953 567.939,355.281 567.43,354.226C567.03,353.463 566.603,352.636 566.149,351.745C565.694,350.854 565.467,349.955 565.467,349.046C565.467,348.064 565.64,347.146 565.985,346.292C566.33,345.437 566.721,344.601 567.157,343.783C567.594,342.965 568.021,342.147 568.439,341.329C568.857,340.511 569.157,339.63 569.339,338.684C569.593,338.539 569.948,338.394 570.402,338.248C570.857,338.103 571.347,337.957 571.875,337.812C572.402,337.666 572.911,337.53 573.401,337.403C573.892,337.276 574.301,337.157 574.628,337.048C575.501,336.794 576.346,336.494 577.164,336.149C577.982,335.803 578.818,335.485 579.673,335.194C580.527,334.903 581.382,334.649 582.236,334.431C583.09,334.213 583.972,334.085 584.881,334.049L586.571,333.995C588.135,333.995 589.734,334.131 591.37,334.404C593.006,334.676 594.606,335.103 596.169,335.685C597.732,336.267 599.214,336.985 600.613,337.839C602.013,338.693 603.258,339.702 604.349,340.866C605.149,341.738 605.812,342.765 606.339,343.947C606.867,345.128 607.285,346.374 607.594,347.682C607.903,348.991 608.121,350.309 608.248,351.636C608.375,352.963 608.439,354.19 608.439,355.317C608.439,356.844 608.394,358.344 608.303,359.816C608.212,361.288 608.166,362.788 608.166,364.315C608.166,365.769 608.248,367.214 608.412,368.65C608.575,370.086 608.766,371.522 608.984,372.958C609.202,374.394 609.393,375.83 609.557,377.267C609.721,378.703 609.802,380.13 609.802,381.547C609.875,382.42 609.993,382.956 610.157,383.156C610.32,383.356 610.493,383.456 610.675,383.456C611.475,383.456 612.12,383.211 612.611,382.72C613.102,382.229 613.547,381.684 613.947,381.084C614.347,380.484 614.783,379.93 615.256,379.421C615.728,378.912 616.328,378.657 617.055,378.657C617.382,378.657 617.719,378.675 618.064,378.712C618.409,378.748 618.728,378.83 619.018,378.957C619.309,379.084 619.546,379.266 619.727,379.502C619.909,379.739 620,380.057 620,380.457ZM602.059,366.878C602.059,366.66 602.05,366.278 602.031,365.733C602.013,365.187 601.968,364.633 601.895,364.07C601.822,363.506 601.704,363.006 601.541,362.57C601.377,362.134 601.132,361.915 600.804,361.915C600.732,361.915 600.641,361.943 600.532,361.997C600.423,362.052 600.332,362.079 600.259,362.079C598.878,362.843 597.696,363.47 596.714,363.96C595.733,364.451 594.76,364.851 593.797,365.16C592.833,365.469 591.806,365.678 590.716,365.787C589.625,365.896 588.262,365.951 586.626,365.951C586.408,365.951 585.808,366.042 584.826,366.224C583.845,366.405 582.772,366.614 581.609,366.851C580.445,367.087 579.355,367.323 578.337,367.56C577.319,367.796 576.683,367.95 576.428,368.023C575.955,368.205 575.619,368.387 575.419,368.569C575.219,368.75 575.065,368.95 574.956,369.168C574.847,369.387 574.738,369.614 574.628,369.85C574.519,370.086 574.319,370.332 574.029,370.586C573.665,370.877 573.274,371.113 572.856,371.295C572.438,371.477 572.047,371.75 571.684,372.113C571.138,372.658 570.629,373.377 570.157,374.267C569.684,375.158 569.448,376.003 569.448,376.803C569.448,377.785 569.702,378.657 570.211,379.421C570.72,380.184 571.393,380.838 572.229,381.384C573.065,381.929 574.01,382.402 575.065,382.802C576.119,383.202 577.182,383.511 578.255,383.729C579.327,383.947 580.364,384.11 581.363,384.219C582.363,384.329 583.227,384.383 583.954,384.383C584.826,384.383 585.862,384.319 587.062,384.192C588.262,384.065 589.461,383.865 590.661,383.592C591.861,383.32 592.988,382.947 594.042,382.474C595.097,382.002 595.933,381.402 596.551,380.675C596.805,380.384 596.987,380.12 597.096,379.884C597.205,379.648 597.323,379.411 597.451,379.175C597.578,378.939 597.723,378.693 597.887,378.439C598.05,378.185 598.314,377.912 598.678,377.621C599.514,376.93 600.159,376.167 600.613,375.331C601.068,374.494 601.404,373.622 601.622,372.713C601.84,371.804 601.968,370.859 602.004,369.877C602.04,368.896 602.059,367.896 602.059,366.878Z" style="fill-rule:nonzero;"/>
    </g>
    <g transform="matrix(5.94659,0,0,5.94659,-1828.05,-1751.03)">
        <path d="M333.102,309.127C333.102,310.073 332.902,310.745 332.502,311.145C332.102,311.545 331.593,311.818 330.975,311.963C330.357,312.109 329.693,312.154 328.984,312.1C328.275,312.045 327.63,312.018 327.048,312.018C326.721,312.018 326.167,312.1 325.385,312.263C324.603,312.427 323.804,312.645 322.986,312.918C322.168,313.19 321.45,313.508 320.832,313.872C320.214,314.235 319.905,314.599 319.905,314.963C319.905,315.471 319.959,315.953 320.068,316.408C320.177,316.862 320.232,317.307 320.232,317.744C320.232,318.253 320.141,318.734 319.959,319.189C319.777,319.643 319.686,320.125 319.686,320.634C319.686,321.143 319.741,321.67 319.85,322.215C319.959,322.761 320.014,323.324 320.014,323.906C320.014,324.015 319.886,324.342 319.632,324.888C319.377,325.433 319.25,325.96 319.25,326.469C319.25,327.232 319.377,327.987 319.632,328.732C319.886,329.477 320.014,330.25 320.014,331.05C320.014,331.559 319.959,332.013 319.85,332.413C319.741,332.813 319.686,333.249 319.686,333.722C319.686,334.631 319.841,335.485 320.15,336.285C320.459,337.085 320.613,337.903 320.613,338.739C320.613,339.575 320.477,340.384 320.204,341.166C319.932,341.947 319.796,342.738 319.796,343.538C319.796,344.592 319.905,345.637 320.123,346.673C320.341,347.71 320.45,348.755 320.45,349.809C320.45,350.682 320.377,351.545 320.232,352.399C320.086,353.254 320.014,354.135 320.014,355.044C320.014,356.062 320.15,357.053 320.423,358.016C320.695,358.98 320.832,359.97 320.832,360.988C320.832,361.497 320.732,361.979 320.532,362.434C320.332,362.888 320.232,363.406 320.232,363.988C320.232,364.606 320.268,365.215 320.341,365.815C320.414,366.414 320.45,367.023 320.45,367.641C320.45,368.223 320.341,368.768 320.123,369.277C319.905,369.786 319.796,370.332 319.796,370.913C319.796,371.277 319.859,371.622 319.986,371.95C320.114,372.277 320.259,372.595 320.423,372.904C320.586,373.213 320.732,373.504 320.859,373.776C320.986,374.049 321.05,374.313 321.05,374.567C321.05,374.931 320.977,375.294 320.832,375.658C320.686,376.021 320.613,376.367 320.613,376.694C320.613,377.312 320.686,377.903 320.832,378.466C320.977,379.03 321.05,379.602 321.05,380.184C321.05,381.638 320.859,383.074 320.477,384.492C320.095,385.91 319.905,387.382 319.905,388.909C319.905,389.6 320.068,390.127 320.395,390.491C320.723,390.854 321.122,391.118 321.595,391.282C322.068,391.445 322.577,391.536 323.122,391.554C323.667,391.572 324.158,391.581 324.594,391.581C325.14,391.581 325.767,391.6 326.476,391.636C327.185,391.672 327.839,391.791 328.439,391.99C329.039,392.19 329.548,392.499 329.966,392.918C330.384,393.336 330.593,393.926 330.593,394.69C330.593,395.962 330.175,396.835 329.339,397.307C328.503,397.78 327.521,398.016 326.394,398.016C324.867,398.016 323.377,397.853 321.922,397.526C320.468,397.198 319.014,397.035 317.56,397.035C317.087,397.035 316.651,397.126 316.251,397.307C315.851,397.489 315.433,397.58 314.997,397.58C313.615,397.58 312.624,397.198 312.025,396.435C311.425,395.671 311.034,394.753 310.852,393.681C310.67,392.608 310.625,391.481 310.716,390.3C310.807,389.118 310.852,388.091 310.852,387.219C310.852,385.874 310.688,384.574 310.361,383.32C310.034,382.065 309.87,380.748 309.87,379.366C309.87,378.748 309.889,378.121 309.925,377.485C309.961,376.848 309.98,376.221 309.98,375.603C309.98,374.549 310.107,373.486 310.361,372.413C310.616,371.341 310.743,370.277 310.743,369.223C310.743,368.714 310.634,368.25 310.416,367.832C310.198,367.414 310.089,366.951 310.089,366.442C310.089,365.86 310.216,365.287 310.47,364.724C310.725,364.16 310.852,363.57 310.852,362.952C310.852,362.37 310.788,361.788 310.661,361.207C310.534,360.625 310.389,360.043 310.225,359.461C310.061,358.88 309.916,358.298 309.789,357.716C309.661,357.135 309.598,356.535 309.598,355.917C309.598,354.535 309.771,353.163 310.116,351.8C310.461,350.436 310.634,349.064 310.634,347.682C310.634,346.628 310.543,345.565 310.361,344.492C310.18,343.42 310.089,342.356 310.089,341.302C310.089,340.757 310.143,340.22 310.252,339.693C310.361,339.166 310.416,338.63 310.416,338.085C310.416,337.685 310.343,337.294 310.198,336.912C310.052,336.53 309.98,336.14 309.98,335.74C309.98,334.903 310.089,334.067 310.307,333.231C310.525,332.395 310.634,331.595 310.634,330.832C310.634,329.596 310.525,328.359 310.307,327.123C310.089,325.887 309.98,324.651 309.98,323.415C309.98,322.252 310.125,321.116 310.416,320.007C310.707,318.898 310.852,317.762 310.852,316.599C310.852,315.98 310.834,315.353 310.798,314.717C310.761,314.081 310.743,313.454 310.743,312.836C310.743,312.036 310.77,311.245 310.825,310.464C310.879,309.682 311.043,308.973 311.316,308.337C311.588,307.701 312.006,307.192 312.57,306.81C313.133,306.428 313.942,306.237 314.997,306.237C315.433,306.237 315.851,306.328 316.251,306.51C316.651,306.692 317.087,306.783 317.56,306.783C318.687,306.783 319.823,306.728 320.968,306.619C322.113,306.51 323.249,306.455 324.376,306.455C325.14,306.455 325.876,306.346 326.585,306.128C327.294,305.91 328.048,305.801 328.848,305.801C329.975,305.801 330.966,306.037 331.82,306.51C332.674,306.983 333.102,307.855 333.102,309.127Z" style="fill-rule:nonzero;"/>
    </g>
    <g transform="matrix(6.09236,0,0,6.09236,-198.533,-1809.05)">
        <path d="M325.249,347.9C325.249,349.282 325.085,350.654 324.758,352.018C324.431,353.381 324.267,354.753 324.267,356.135C324.267,357.189 324.358,358.253 324.54,359.325C324.722,360.398 324.813,361.461 324.813,362.515C324.813,363.097 324.758,363.642 324.649,364.151C324.54,364.66 324.485,365.206 324.485,365.787C324.485,366.187 324.558,366.578 324.703,366.96C324.849,367.342 324.922,367.732 324.922,368.132C324.922,368.968 324.813,369.796 324.594,370.613C324.376,371.431 324.267,372.24 324.267,373.04C324.267,374.276 324.376,375.503 324.594,376.721C324.813,377.939 324.922,379.166 324.922,380.402C324.922,381.238 324.84,382.056 324.676,382.856C324.513,383.656 324.376,384.474 324.267,385.31C324.085,386.255 324.022,387.228 324.076,388.228C324.131,389.227 324.158,390.236 324.158,391.254C324.158,392.018 324.122,392.772 324.049,393.517C323.976,394.263 323.795,394.935 323.504,395.535C323.213,396.135 322.786,396.626 322.222,397.007C321.659,397.389 320.886,397.58 319.905,397.58C319.432,397.58 318.996,397.489 318.596,397.307C318.196,397.126 317.778,397.035 317.342,397.035C316.214,397.035 315.078,397.089 313.933,397.198C312.788,397.307 311.652,397.362 310.525,397.362C309.725,397.362 308.971,397.471 308.262,397.689C307.553,397.907 306.817,398.016 306.053,398.016C304.926,398.016 303.935,397.78 303.081,397.307C302.227,396.835 301.8,395.962 301.8,394.69C301.8,393.781 302,393.117 302.399,392.699C302.799,392.281 303.299,392 303.899,391.854C304.499,391.709 305.153,391.663 305.862,391.718C306.571,391.772 307.217,391.8 307.798,391.8C308.125,391.8 308.689,391.718 309.489,391.554C310.289,391.391 311.088,391.182 311.888,390.927C312.688,390.673 313.397,390.373 314.015,390.027C314.633,389.682 314.942,389.309 314.942,388.909C314.942,388.4 314.888,387.919 314.778,387.464C314.669,387.01 314.615,386.546 314.615,386.074C314.615,385.565 314.706,385.083 314.888,384.628C315.069,384.174 315.16,383.692 315.16,383.183C315.16,382.674 315.106,382.147 314.997,381.602C314.888,381.057 314.833,380.511 314.833,379.966C314.833,379.602 314.969,379.212 315.242,378.793C315.515,378.375 315.651,377.912 315.651,377.403C315.651,376.603 315.515,375.83 315.242,375.085C314.969,374.34 314.833,373.586 314.833,372.822C314.833,372.313 314.888,371.85 314.997,371.431C315.106,371.013 315.16,370.568 315.16,370.095C315.16,369.223 315.015,368.378 314.724,367.56C314.433,366.742 314.288,365.915 314.288,365.078C314.288,364.242 314.415,363.433 314.669,362.652C314.924,361.87 315.051,361.079 315.051,360.279C315.051,359.225 314.942,358.189 314.724,357.171C314.506,356.153 314.397,355.117 314.397,354.063C314.397,353.154 314.469,352.272 314.615,351.418C314.76,350.564 314.833,349.682 314.833,348.773C314.833,347.755 314.706,346.773 314.451,345.828C314.197,344.883 314.07,343.901 314.07,342.883C314.07,342.374 314.16,341.884 314.342,341.411C314.524,340.938 314.615,340.411 314.615,339.83C314.615,339.212 314.579,338.603 314.506,338.003C314.433,337.403 314.397,336.794 314.397,336.176C314.397,335.594 314.506,335.049 314.724,334.54C314.942,334.031 315.051,333.486 315.051,332.904C315.051,332.177 314.869,331.513 314.506,330.913C314.142,330.314 313.96,329.759 313.96,329.25C313.96,328.923 314.015,328.569 314.124,328.187C314.233,327.805 314.288,327.451 314.288,327.123C314.288,326.505 314.215,325.915 314.07,325.351C313.924,324.788 313.851,324.215 313.851,323.633C313.851,322.179 314.033,320.743 314.397,319.325C314.76,317.907 314.942,316.453 314.942,314.963C314.942,314.017 314.678,313.363 314.151,312.999C313.624,312.636 312.961,312.409 312.161,312.318C311.361,312.227 310.507,312.19 309.598,312.209C308.689,312.227 307.835,312.181 307.035,312.072C306.235,311.963 305.571,311.7 305.044,311.282C304.517,310.863 304.254,310.145 304.254,309.127C304.254,307.855 304.681,306.983 305.535,306.51C306.389,306.037 307.38,305.801 308.507,305.801C310.034,305.801 311.506,305.965 312.924,306.292C314.342,306.619 315.815,306.783 317.342,306.783C317.778,306.783 318.196,306.692 318.596,306.51C318.996,306.328 319.432,306.237 319.905,306.237C321.25,306.237 322.231,306.619 322.849,307.382C323.467,308.146 323.858,309.064 324.022,310.136C324.185,311.209 324.231,312.336 324.158,313.517C324.085,314.699 324.049,315.726 324.049,316.599C324.049,317.98 324.213,319.298 324.54,320.552C324.867,321.806 325.031,323.106 325.031,324.451C325.031,325.069 325.012,325.696 324.976,326.333C324.94,326.969 324.922,327.596 324.922,328.214C324.922,329.268 324.813,330.332 324.594,331.404C324.376,332.477 324.267,333.54 324.267,334.594C324.267,335.103 324.358,335.567 324.54,335.985C324.722,336.403 324.813,336.867 324.813,337.376C324.813,337.957 324.685,338.53 324.431,339.093C324.176,339.657 324.049,340.248 324.049,340.866C324.049,341.447 324.113,342.029 324.24,342.611C324.367,343.192 324.504,343.774 324.649,344.356C324.794,344.938 324.931,345.519 325.058,346.101C325.185,346.683 325.249,347.282 325.249,347.9Z" style="fill-rule:nonzero;"/>
    </g>
</svg>
